<svg width="21" height="13" viewBox="0 0 21 13" fill="none" xmlns="http://www.w3.org/2000/svg">
<path d="M0.292893 5.70711L5.79289 0.207107C5.9255 0.0744985 6.10536 0 6.29289 0C6.68342 0 7 0.316583 7 0.707107C7 0.894643 6.9255 1.0745 6.79289 1.20711L2.29289 5.70711C2.10536 5.89464 2 6.149 2 6.41421V6.58579C2 6.851 2.10536 7.10536 2.29289 7.29289L6.79289 11.7929C6.9255 11.9255 7 12.1054 7 12.2929C7 12.6834 6.68342 13 6.29289 13C6.10536 13 5.9255 12.9255 5.79289 12.7929L0.292893 7.29289C0.105357 7.10536 0 6.851 0 6.58579V6.41421C0 6.149 0.105357 5.89464 0.292893 5.70711Z" fill="#EEEEEE"/>
<path d="M12.7246 1.19349L10.1743 12.2447C10.0723 12.6868 9.67859 13 9.22486 13C8.59824 13 8.13452 12.4171 8.27542 11.8065L10.8257 0.75529C10.9277 0.313179 11.3214 0 11.7751 0C12.4018 0 12.8655 0.582922 12.7246 1.19349Z" fill="#EEEEEE"/>
<path d="M20.7071 5.70711L15.2071 0.207107C15.0745 0.0744985 14.8946 0 14.7071 0C14.3166 0 14 0.316583 14 0.707107C14 0.894643 14.0745 1.0745 14.2071 1.20711L18.7071 5.70711C18.8946 5.89464 19 6.149 19 6.41421V6.58579C19 6.851 18.8946 7.10536 18.7071 7.29289L14.2071 11.7929C14.0745 11.9255 14 12.1054 14 12.2929C14 12.6834 14.3166 13 14.7071 13C14.8946 13 15.0745 12.9255 15.2071 12.7929L20.7071 7.29289C20.8946 7.10536 21 6.851 21 6.58579V6.41421C21 6.149 20.8946 5.89464 20.7071 5.70711Z" fill="#EEEEEE"/>
</svg>
