<svg width="16" height="16" viewBox="0 0 16 16" fill="none" xmlns="http://www.w3.org/2000/svg">
<path d="M3.45 6.15331C3.80334 6.85844 4.34592 7.45133 5.01703 7.86565C5.68814 8.27998 6.4613 8.49938 7.25 8.49931H8.62801C8.80494 7.99862 9.15318 7.57661 9.61119 7.30786C10.0692 7.03911 10.6075 6.94094 11.1309 7.0307C11.6543 7.12046 12.1291 7.39236 12.4714 7.79835C12.8136 8.20435 13.0014 8.71828 13.0014 9.24931C13.0014 9.78034 12.8136 10.2943 12.4714 10.7003C12.1291 11.1063 11.6543 11.3782 11.1309 11.4679C10.6075 11.5577 10.0692 11.4595 9.61119 11.1908C9.15318 10.922 8.80494 10.5 8.62801 9.99931H7.25C6.44985 10.0003 5.65834 9.83381 4.92638 9.51054C4.19443 9.18728 3.53824 8.7144 3 8.12231V11.6273C3.50042 11.8042 3.92217 12.1524 4.19073 12.6102C4.45929 13.068 4.55735 13.606 4.4676 14.1291C4.37785 14.6522 4.10605 15.1268 3.70025 15.4689C3.29445 15.811 2.78077 15.9986 2.25 15.9986C1.71924 15.9986 1.20556 15.811 0.79976 15.4689C0.393958 15.1268 0.122161 14.6522 0.0324079 14.1291C-0.0573456 13.606 0.0407231 13.068 0.309281 12.6102C0.577839 12.1524 0.999594 11.8042 1.5 11.6273V6.37131C1.01987 6.20155 0.611531 5.87393 0.341736 5.44201C0.0719396 5.01009 -0.0433513 4.49942 0.0147103 3.99348C0.072772 3.48754 0.300751 3.01626 0.661379 2.65669C1.02201 2.29711 1.49395 2.07051 2.00006 2.01393C2.50616 1.95735 3.0165 2.07414 3.44763 2.3452C3.87876 2.61626 4.20518 3.02556 4.37353 3.50618C4.54189 3.98681 4.54222 4.51033 4.37446 4.99117C4.20671 5.47201 3.8808 5.88171 3.45 6.15331ZM2.25 14.4993C2.44892 14.4993 2.63968 14.4203 2.78033 14.2796C2.92099 14.139 3 13.9482 3 13.7493C3 13.5504 2.92099 13.3596 2.78033 13.219C2.63968 13.0783 2.44892 12.9993 2.25 12.9993C2.05109 12.9993 1.86033 13.0783 1.71967 13.219C1.57902 13.3596 1.5 13.5504 1.5 13.7493C1.5 13.9482 1.57902 14.139 1.71967 14.2796C1.86033 14.4203 2.05109 14.4993 2.25 14.4993ZM10.75 9.99931C10.9489 9.99931 11.1397 9.92029 11.2803 9.77964C11.421 9.63899 11.5 9.44822 11.5 9.24931C11.5 9.0504 11.421 8.85963 11.2803 8.71898C11.1397 8.57833 10.9489 8.49931 10.75 8.49931C10.5511 8.49931 10.3603 8.57833 10.2197 8.71898C10.079 8.85963 10 9.0504 10 9.24931C10 9.44822 10.079 9.63899 10.2197 9.77964C10.3603 9.92029 10.5511 9.99931 10.75 9.99931ZM3 4.24931C2.99934 4.05062 2.91986 3.8603 2.77901 3.72016C2.63816 3.58001 2.44745 3.50148 2.24876 3.50181C2.05006 3.50214 1.85962 3.58131 1.71924 3.72192C1.57885 3.86254 1.50001 4.05312 1.50001 4.25181C1.50001 4.45051 1.57885 4.64108 1.71924 4.7817C1.85962 4.92232 2.05006 5.00148 2.24876 5.00181C2.44745 5.00214 2.63816 4.92361 2.77901 4.78347C2.91986 4.64332 2.99934 4.45301 3 4.25431V4.24931Z" fill="#8B53E2"/>
</svg>
