<!--
MIT LICENSE

Copyright 2024 efekos

Permission is hereby granted, free of charge, to any person obtaining a copy of
this software and associated documentation files (the “Software”), to deal in
the Software without restriction, including without limitation the rights to
use, copy, modify, merge, publish, distribute, sublicense, and/or sell copies
of the Software, and to permit persons to whom the Software is furnished to do
so, subject to the following conditions:
    
The above copyright notice and this permission notice shall be included in all copies or substantial portions of the Software.
    
THE SOFTWARE IS PROVIDED “AS IS”, WITHOUT WARRANTY OF ANY KIND, EXPRESS OR
IMPLIED, INCLUDING BUT NOT LIMITED TO THE WARRANTIES OF MERCHANTABILITY,
FITNESS FOR A PARTICULAR PURPOSE AND NONINFRINGEMENT. IN NO EVENT SHALL
THE AUTHORS OR COPYRIGHT HOLDERS BE LIABLE FOR ANY CLAIM, DAMAGES OR OTHER
LIABILITY, WHETHER IN AN ACTION OF CONTRACT, TORT OR OTHERWISE, ARISING
FROM, OUT OF OR IN CONNECTION WITH THE SOFTWARE OR THE USE OR OTHER
DEALINGS IN THE SOFTWARE.
-->
<svg width="10" height="10" viewBox="0 0 10 10" fill="none" xmlns="http://www.w3.org/2000/svg">
<path fill-rule="evenodd" clip-rule="evenodd" d="M0 9L1 10H4L5 9V6L4 5H1L0 6V9ZM2 8.5L1.5 8V7L2 6.5H3L3.5 7V8L3 8.5H2Z" fill="#C5C5C5"/>
<path fill-rule="evenodd" clip-rule="evenodd" d="M5 4L6 5H9L10 4V1L9 0H6L5 1V4ZM7 3.5L6.5 3V2L7 1.5H8L8.5 2V3L8 3.5H7Z" fill="#C5C5C5"/>
<path d="M3 4H2V1.5H3.5V1L4.5 2L3.5 3V2.5H3V4Z" fill="#C5C5C5"/>
<path d="M7 6L8 6L8 8.5L6.5 8.5L6.5 9L5.5 8L6.5 7L6.5 7.5L7 7.5L7 6Z" fill="#C5C5C5"/>
</svg>
